The.Botany.Of.Desire.2009.DVDRip.XViD-SPRiNTER

==============================================
 
http://www.imdb.com/title/tt1421383/

==============

Audio: English
Subtitles: N/A

==============

Date: 2010.09

Directors: Michael Schwarz | Edward Grey

Genre: Docu

==============

Plot : Michael Pollan, a professor of journalism and a student of food, presents the history of four plants, each of which found a way to make itself essential to humans, thus ensuring widespread propagation.

Apples, for sweetness; 
tulips, for beauty; 
marijuana, for pleasure; 
and, potatoes, for sustenance.

Each has a story of discovery and adaptation; each has a symbiotic relationship with human civilization.

The film tells these stories and examines these relationships.

==============

Cast


Frances McDormand ... Narrator
Michael Pollan ... Himself

==============

Format                           : AVI
Format/Info                      : Audio Video Interleave
File size                        : 1.37 GiB
Duration                         : 1h 56mn
Overall bit rate                 : 1 683 Kbps
Writing application              : Nandub v1.0rc2
Writing library                  : Nandub build 1852/release

Video
ID                               : 0
Format                           : MPEG-4 Visual
Format profile                   : AdvancedSimple@L5
Format settings, BVOP            : Yes
Format settings, QPel            : No
Format settings, GMC             : No warppoints
Format settings, Matrix          : Default (H.263)
Codec ID                         : XVID
Codec ID/Hint                    : XviD
Duration                         : 1h 56mn
Bit rate                         : 1 535 Kbps
Width                            : 624 pixels
Height                           : 336 pixels
Display aspect ratio             : 1.857
Frame rate                       : 29.970 fps
Resolution                       : 24 bits
Colorimetry                      : 4:2:0
Scan type                        : Progressive
Bits/(Pixel*Frame)               : 0.244
Stream size                      : 1.25 GiB (91%)
Writing library                  : XviD 1.2.1 (UTC 2008-12-04)

Audio
ID                               : 1
Format                           : MPEG Audio
Format version                   : Version 1
Format profile                   : Layer 3
Codec ID                         : 55
Codec ID/Hint                    : MP3
Duration                         : 1h 56mn
Bit rate mode                    : Variable
Bit rate                         : 134 Kbps
Minimum bit rate                 : 40.0 Kbps
Channel(s)                       : 2 channels
Sampling rate                    : 48.0 KHz
Resolution                       : 16 bits
Stream size                      : 112 MiB (8%)
Alignment                        : Aligned on interleaves
Interleave, duration             : 24 ms (0.72 video frame)
Interleave, preload duration     : 284 ms
Writing library                  : LAME3.98r
Encoding settings                : -m s -V 6 -q 0 -lowpass 15.5 --vbr-new -b 40